<svg width="183" height="39" viewBox="0 0 183 39" fill="none" xmlns="http://www.w3.org/2000/svg">
<path d="M16.2368 22.2524C16.2368 21.7987 16.1701 21.3916 16.0366 21.0312C15.9032 20.6576 15.6562 20.3105 15.2959 19.9902C14.9355 19.6699 14.415 19.3496 13.7344 19.0293C13.0671 18.6956 12.1862 18.3486 11.0918 17.9883C9.81055 17.5612 8.57601 17.0807 7.38818 16.5469C6.20036 15.9997 5.13932 15.3657 4.20508 14.645C3.27083 13.911 2.53011 13.0568 1.98291 12.0825C1.43571 11.0949 1.16211 9.9471 1.16211 8.63916C1.16211 7.3846 1.44238 6.25684 2.00293 5.25586C2.56348 4.24154 3.34424 3.3807 4.34521 2.67334C5.35954 1.95264 6.54736 1.40544 7.90869 1.03174C9.27002 0.644694 10.7581 0.451172 12.373 0.451172C14.5085 0.451172 16.3903 0.82487 18.0186 1.57227C19.6602 2.30632 20.9414 3.354 21.8623 4.71533C22.7965 6.06331 23.2637 7.6582 23.2637 9.5H16.2769C16.2769 8.76595 16.1234 8.11865 15.8164 7.55811C15.5228 6.99756 15.0757 6.55713 14.4751 6.23682C13.8745 5.9165 13.1204 5.75635 12.2129 5.75635C11.332 5.75635 10.5913 5.88981 9.99072 6.15674C9.39014 6.42367 8.93636 6.78402 8.62939 7.23779C8.32243 7.67822 8.16895 8.16536 8.16895 8.69922C8.16895 9.13965 8.28906 9.54004 8.5293 9.90039C8.78288 10.2474 9.13656 10.5744 9.59033 10.8813C10.0575 11.1883 10.618 11.4819 11.272 11.7622C11.9393 12.0425 12.6867 12.3161 13.5142 12.583C15.0623 13.0768 16.437 13.6307 17.6382 14.2446C18.8527 14.8452 19.8737 15.5326 20.7012 16.3066C21.542 17.0674 22.1759 17.9349 22.603 18.9092C23.0435 19.8835 23.2637 20.9845 23.2637 22.2124C23.2637 23.5203 23.0101 24.6815 22.5029 25.6958C21.9958 26.7101 21.2684 27.571 20.3208 28.2783C19.3732 28.9723 18.2388 29.4995 16.9175 29.8599C15.5962 30.2202 14.1214 30.4004 12.4932 30.4004C10.9984 30.4004 9.5236 30.2135 8.06885 29.8398C6.62744 29.4528 5.3195 28.8656 4.14502 28.0781C2.97054 27.2773 2.02962 26.2563 1.32227 25.0151C0.628255 23.7606 0.28125 22.2725 0.28125 20.5508H7.32812C7.32812 21.4049 7.44157 22.1257 7.66846 22.7129C7.89535 23.3001 8.229 23.7739 8.66943 24.1343C9.10986 24.4813 9.65039 24.7349 10.291 24.895C10.9316 25.0418 11.6657 25.1152 12.4932 25.1152C13.3874 25.1152 14.1081 24.9884 14.6553 24.7349C15.2025 24.4679 15.6029 24.1209 15.8564 23.6938C16.11 23.2534 16.2368 22.7729 16.2368 22.2524ZM42.9092 24.7349V8.33887H49.6758V30H43.3497L42.9092 24.7349ZM43.5499 20.3306L45.3116 20.2905C45.3116 21.7453 45.1381 23.0933 44.7911 24.3345C44.4441 25.5623 43.9302 26.63 43.2496 27.5376C42.5823 28.4451 41.7548 29.1525 40.7671 29.6597C39.7929 30.1535 38.6651 30.4004 37.3838 30.4004C36.3161 30.4004 35.3352 30.2536 34.441 29.96C33.5601 29.653 32.7994 29.1792 32.1588 28.5386C31.5181 27.8846 31.0176 27.0505 30.6573 26.0361C30.3103 25.0085 30.1368 23.7806 30.1368 22.3525V8.33887H36.8834V22.3926C36.8834 22.873 36.9434 23.2868 37.0635 23.6338C37.1837 23.9808 37.3572 24.2744 37.584 24.5146C37.8109 24.7415 38.0912 24.915 38.4249 25.0352C38.7719 25.1419 39.1656 25.1953 39.606 25.1953C40.6203 25.1953 41.4144 24.9818 41.9883 24.5547C42.5622 24.1276 42.9626 23.547 43.1895 22.813C43.4297 22.0789 43.5499 21.2515 43.5499 20.3306ZM68.3405 24.5547V15.626C68.3405 15.012 68.2537 14.4849 68.0802 14.0444C67.9067 13.604 67.6331 13.2637 67.2594 13.0234C66.8857 12.7699 66.3852 12.6431 65.7579 12.6431C65.2508 12.6431 64.817 12.7298 64.4567 12.9033C64.0963 13.0768 63.8227 13.3371 63.6359 13.6841C63.449 14.0311 63.3556 14.4715 63.3556 15.0054H56.609C56.609 14.0044 56.8292 13.0768 57.2696 12.2227C57.7234 11.3551 58.3641 10.6011 59.1915 9.96045C60.0323 9.31982 61.0333 8.82601 62.1945 8.479C63.3689 8.11865 64.6769 7.93848 66.1183 7.93848C67.84 7.93848 69.3748 8.22542 70.7228 8.79932C72.0841 9.37321 73.1585 10.234 73.9459 11.3818C74.7334 12.5163 75.1271 13.9443 75.1271 15.666V24.5347C75.1271 25.9494 75.2071 27.0238 75.3673 27.7578C75.5275 28.4785 75.7544 29.1125 76.048 29.6597V30H69.2814C68.9611 29.3327 68.7208 28.5186 68.5607 27.5576C68.4139 26.5833 68.3405 25.5824 68.3405 24.5547ZM69.1613 16.7671L69.2013 20.3706H66.2184C65.5911 20.3706 65.0572 20.4574 64.6168 20.6309C64.1897 20.8044 63.8427 21.0446 63.5758 21.3516C63.3222 21.6452 63.1354 21.9788 63.0153 22.3525C62.9085 22.7262 62.8551 23.12 62.8551 23.5337C62.8551 23.9341 62.9485 24.2944 63.1354 24.6147C63.3356 24.9217 63.6025 25.1619 63.9362 25.3354C64.2698 25.509 64.6435 25.5957 65.0572 25.5957C65.8046 25.5957 66.4386 25.4556 66.9591 25.1753C67.493 24.8817 67.9 24.528 68.1803 24.1143C68.4606 23.7005 68.6007 23.3135 68.6007 22.9531L70.0821 25.7158C69.8152 26.2497 69.5083 26.7902 69.1613 27.3374C68.8276 27.8846 68.4072 28.3918 67.9 28.8589C67.4062 29.3127 66.7989 29.6864 66.0782 29.98C65.3575 30.2603 64.4834 30.4004 63.4557 30.4004C62.121 30.4004 60.8932 30.1268 59.7721 29.5796C58.6643 29.0324 57.7768 28.2716 57.1095 27.2974C56.4422 26.3097 56.1085 25.1753 56.1085 23.894C56.1085 22.7729 56.3087 21.772 56.7091 20.8911C57.1228 20.0103 57.7434 19.2629 58.5709 18.6489C59.3984 18.035 60.4528 17.5679 61.734 17.2476C63.0153 16.9272 64.5234 16.7671 66.2584 16.7671H69.1613Z" fill="#FE1C00"/>
<path d="M101.88 26.0161V30H87.2453V26.0161H101.88ZM88.6467 0.851562V30H83.6218V0.851562H88.6467ZM108.052 19.4097V18.9492C108.052 17.3877 108.279 15.9396 108.733 14.605C109.186 13.257 109.84 12.0892 110.695 11.1016C111.562 10.1006 112.616 9.3265 113.858 8.7793C115.112 8.21875 116.527 7.93848 118.102 7.93848C119.69 7.93848 121.105 8.21875 122.346 8.7793C123.6 9.3265 124.662 10.1006 125.529 11.1016C126.397 12.0892 127.057 13.257 127.511 14.605C127.965 15.9396 128.192 17.3877 128.192 18.9492V19.4097C128.192 20.9712 127.965 22.4193 127.511 23.7539C127.057 25.0885 126.397 26.2563 125.529 27.2573C124.662 28.245 123.607 29.019 122.366 29.5796C121.125 30.1268 119.717 30.4004 118.142 30.4004C116.554 30.4004 115.132 30.1268 113.878 29.5796C112.636 29.019 111.582 28.245 110.715 27.2573C109.847 26.2563 109.186 25.0885 108.733 23.7539C108.279 22.4193 108.052 20.9712 108.052 19.4097ZM112.877 18.9492V19.4097C112.877 20.384 112.977 21.3049 113.177 22.1724C113.377 23.0399 113.691 23.8006 114.118 24.4546C114.545 25.1086 115.092 25.6224 115.76 25.9961C116.427 26.3698 117.221 26.5566 118.142 26.5566C119.036 26.5566 119.81 26.3698 120.464 25.9961C121.131 25.6224 121.679 25.1086 122.106 24.4546C122.533 23.8006 122.846 23.0399 123.047 22.1724C123.26 21.3049 123.367 20.384 123.367 19.4097V18.9492C123.367 17.9883 123.26 17.0807 123.047 16.2266C122.846 15.359 122.526 14.5916 122.086 13.9243C121.659 13.257 121.111 12.7365 120.444 12.3628C119.79 11.9757 119.009 11.7822 118.102 11.7822C117.194 11.7822 116.407 11.9757 115.739 12.3628C115.086 12.7365 114.545 13.257 114.118 13.9243C113.691 14.5916 113.377 15.359 113.177 16.2266C112.977 17.0807 112.877 17.9883 112.877 18.9492ZM149.799 8.33887H154.183V29.3994C154.183 31.348 153.77 33.0029 152.942 34.3643C152.115 35.7256 150.96 36.7599 149.479 37.4673C147.997 38.188 146.282 38.5483 144.334 38.5483C143.506 38.5483 142.585 38.4282 141.571 38.188C140.57 37.9478 139.596 37.5607 138.648 37.0269C137.714 36.5063 136.933 35.819 136.306 34.9648L138.568 32.1221C139.342 33.043 140.196 33.717 141.131 34.144C142.065 34.5711 143.046 34.7847 144.074 34.7847C145.181 34.7847 146.122 34.5778 146.896 34.1641C147.684 33.7637 148.291 33.1698 148.718 32.3823C149.145 31.5949 149.359 30.634 149.359 29.4995V13.2437L149.799 8.33887ZM135.085 19.4097V18.9893C135.085 17.3477 135.285 15.8529 135.685 14.5049C136.086 13.1436 136.66 11.9757 137.407 11.0015C138.154 10.0138 139.062 9.25977 140.13 8.73926C141.197 8.2054 142.405 7.93848 143.753 7.93848C145.155 7.93848 146.349 8.19206 147.337 8.69922C148.338 9.20638 149.172 9.93376 149.839 10.8813C150.506 11.8156 151.027 12.9367 151.401 14.2446C151.788 15.5392 152.075 16.9806 152.262 18.5688V19.9102C152.088 21.4583 151.794 22.873 151.381 24.1543C150.967 25.4355 150.42 26.5433 149.739 27.4775C149.058 28.4118 148.218 29.1325 147.217 29.6396C146.229 30.1468 145.061 30.4004 143.713 30.4004C142.392 30.4004 141.197 30.1268 140.13 29.5796C139.075 29.0324 138.168 28.265 137.407 27.2773C136.66 26.2897 136.086 25.1286 135.685 23.7939C135.285 22.446 135.085 20.9845 135.085 19.4097ZM139.909 18.9893V19.4097C139.909 20.3973 140.003 21.3182 140.19 22.1724C140.39 23.0265 140.69 23.7806 141.091 24.4346C141.504 25.0752 142.025 25.5824 142.652 25.9561C143.293 26.3164 144.047 26.4966 144.914 26.4966C146.049 26.4966 146.976 26.2563 147.697 25.7759C148.431 25.2954 148.992 24.6481 149.379 23.834C149.779 23.0065 150.059 22.0856 150.22 21.0713V17.4478C150.139 16.6603 149.973 15.9263 149.719 15.2456C149.479 14.5649 149.152 13.971 148.738 13.4639C148.324 12.9434 147.804 12.543 147.177 12.2627C146.549 11.9691 145.809 11.8223 144.954 11.8223C144.087 11.8223 143.333 12.0091 142.692 12.3828C142.052 12.7565 141.524 13.2703 141.111 13.9243C140.71 14.5783 140.41 15.339 140.21 16.2065C140.01 17.0741 139.909 18.0016 139.909 18.9893ZM161.957 19.4097V18.9492C161.957 17.3877 162.184 15.9396 162.638 14.605C163.092 13.257 163.746 12.0892 164.6 11.1016C165.467 10.1006 166.522 9.3265 167.763 8.7793C169.018 8.21875 170.432 7.93848 172.007 7.93848C173.595 7.93848 175.01 8.21875 176.251 8.7793C177.506 9.3265 178.567 10.1006 179.434 11.1016C180.302 12.0892 180.963 13.257 181.416 14.605C181.87 15.9396 182.097 17.3877 182.097 18.9492V19.4097C182.097 20.9712 181.87 22.4193 181.416 23.7539C180.963 25.0885 180.302 26.2563 179.434 27.2573C178.567 28.245 177.513 29.019 176.271 29.5796C175.03 30.1268 173.622 30.4004 172.047 30.4004C170.459 30.4004 169.038 30.1268 167.783 29.5796C166.542 29.019 165.487 28.245 164.62 27.2573C163.752 26.2563 163.092 25.0885 162.638 23.7539C162.184 22.4193 161.957 20.9712 161.957 19.4097ZM166.782 18.9492V19.4097C166.782 20.384 166.882 21.3049 167.082 22.1724C167.283 23.0399 167.596 23.8006 168.023 24.4546C168.45 25.1086 168.998 25.6224 169.665 25.9961C170.332 26.3698 171.126 26.5566 172.047 26.5566C172.941 26.5566 173.716 26.3698 174.369 25.9961C175.037 25.6224 175.584 25.1086 176.011 24.4546C176.438 23.8006 176.752 23.0399 176.952 22.1724C177.166 21.3049 177.272 20.384 177.272 19.4097V18.9492C177.272 17.9883 177.166 17.0807 176.952 16.2266C176.752 15.359 176.432 14.5916 175.991 13.9243C175.564 13.257 175.017 12.7365 174.349 12.3628C173.696 11.9757 172.915 11.7822 172.007 11.7822C171.1 11.7822 170.312 11.9757 169.645 12.3628C168.991 12.7365 168.45 13.257 168.023 13.9243C167.596 14.5916 167.283 15.359 167.082 16.2266C166.882 17.0807 166.782 17.9883 166.782 18.9492Z" fill="black"/>
</svg>
